<?xml version="1.0" standalone="no"?>
<!DOCTYPE svg PUBLIC "-//W3C//DTD SVG 20010904//EN"
 "http://www.w3.org/TR/2001/REC-SVG-20010904/DTD/svg10.dtd">
<svg version="1.0" xmlns="http://www.w3.org/2000/svg"
 width="512.000000pt" height="512.000000pt" viewBox="0 0 512.000000 512.000000"
 preserveAspectRatio="xMidYMid meet">
<metadata>
Created by potrace 1.11, written by Peter Selinger 2001-2013
</metadata>
<g transform="translate(0.000000,512.000000) scale(0.100000,-0.100000)"
fill="#000000" stroke="none">
<path d="M1449 5116 c-2 -2 -29 -7 -59 -10 -73 -9 -257 -53 -323 -78 -28 -11
-65 -24 -82 -30 -50 -19 -215 -107 -277 -149 -310 -211 -550 -541 -647 -893
-60 -213 -59 -206 -57 -1426 1 -619 4 -1134 8 -1145 3 -11 9 -40 13 -65 4 -25
16 -79 26 -120 166 -636 705 -1109 1354 -1188 80 -9 2244 -9 2315 1 134 18
203 34 325 77 392 136 729 431 903 792 79 164 111 258 145 423 l22 110 0 1125
c0 619 -4 1150 -8 1180 -4 30 -9 67 -11 82 -18 126 -79 303 -159 457 -158 306
-411 551 -722 700 -111 54 -286 113 -383 131 -35 6 -78 14 -95 18 -34 6 -2281
15 -2288 8z"/>
</g>
</svg>
