<?xml version="1.0" standalone="no"?>
<!DOCTYPE svg PUBLIC "-//W3C//DTD SVG 20010904//EN"
 "http://www.w3.org/TR/2001/REC-SVG-20010904/DTD/svg10.dtd">
<svg version="1.0" xmlns="http://www.w3.org/2000/svg"
 width="1024.000000pt" height="1024.000000pt" viewBox="0 0 1024.000000 1024.000000"
 preserveAspectRatio="xMidYMid meet">
<metadata>
Created by potrace 1.11, written by Peter Selinger 2001-2013
</metadata>
<g transform="translate(0.000000,1024.000000) scale(0.100000,-0.100000)"
fill="#000000" stroke="none">
<path d="M5098 7226 c-26 -7 -65 -24 -87 -39 -47 -31 -55 -52 -143 -342 -71
-234 -94 -285 -159 -356 l-48 -52 -73 6 c-94 8 -208 40 -281 79 -95 51 -109
104 -53 209 18 35 47 91 65 123 37 71 42 140 12 177 l-19 24 -659 7 c-363 3
-718 11 -789 17 -71 6 -163 13 -204 17 -70 6 -78 5 -103 -17 -50 -43 -45 -150
6 -163 49 -11 219 -17 757 -26 311 -6 585 -14 608 -19 72 -14 78 -26 59 -116
-10 -41 -17 -93 -17 -114 0 -89 106 -228 216 -284 87 -44 146 -57 385 -82 l57
-6 12 -80 c20 -139 84 -343 174 -559 20 -47 36 -97 36 -112 0 -53 -72 -112
-170 -138 l-44 -12 24 -19 c21 -16 23 -20 10 -29 -20 -14 -108 -40 -134 -40
-27 0 -53 -17 -42 -27 4 -4 63 -8 132 -8 l123 0 -31 -25 c-86 -69 -142 -77
-228 -30 -143 78 -175 84 -221 41 l-34 -32 31 6 c22 4 37 0 56 -15 14 -11 46
-28 70 -39 24 -10 50 -26 57 -35 28 -34 -12 -42 -176 -36 -76 2 -84 0 -107
-23 -27 -27 -26 -55 4 -82 16 -15 18 -14 24 10 5 19 13 25 34 25 15 0 36 -7
46 -15 27 -20 62 -19 131 5 59 20 115 26 115 13 -1 -5 -23 -37 -50 -73 -28
-36 -50 -71 -50 -79 0 -19 84 -101 104 -101 18 0 21 21 5 37 -9 9 -6 19 10 41
12 17 35 57 51 90 16 33 37 67 46 76 20 20 69 20 125 1 43 -16 44 -15 87 15
47 33 77 38 86 14 27 -71 -32 -144 -209 -257 -83 -53 -70 -110 20 -93 71 14
186 178 256 365 33 90 40 58 8 -39 -29 -89 -83 -193 -139 -270 -59 -81 -66
-101 -42 -123 34 -31 75 -32 111 -2 55 47 93 145 136 358 17 82 23 101 24 71
2 -68 -26 -205 -70 -341 l-40 -128 28 -22 c15 -13 47 -30 70 -39 40 -16 43
-15 95 8 93 43 92 41 49 171 -43 127 -74 276 -69 327 2 26 11 1 31 -95 31
-141 75 -259 114 -306 28 -33 74 -39 111 -13 33 23 27 50 -32 138 -95 144
-166 310 -166 389 0 49 18 19 31 -48 21 -119 149 -341 222 -385 17 -11 46 -20
62 -20 80 0 72 51 -18 112 -34 23 -84 62 -111 88 -74 68 -134 170 -91 154 8
-4 17 1 21 10 8 21 28 20 45 -1 8 -9 27 -24 43 -34 26 -16 33 -16 75 -3 60 18
105 18 121 -1 34 -42 103 -174 106 -205 1 -19 3 -36 3 -38 2 -9 63 32 80 54
30 39 26 62 -24 128 -25 33 -45 64 -45 69 0 11 69 0 124 -19 55 -20 93 -17
134 8 34 21 35 21 48 3 8 -10 14 -25 14 -32 0 -7 4 -13 10 -13 16 0 42 47 38
72 -5 37 -42 48 -171 48 -96 0 -119 3 -124 15 -7 19 24 55 47 55 9 0 36 14 60
31 30 22 50 29 69 26 26 -5 26 -5 -7 24 -42 38 -81 38 -138 -2 -99 -67 -162
-82 -231 -54 -49 21 -105 64 -97 76 3 5 9 7 13 5 4 -3 37 -10 73 -15 62 -10
149 -3 166 13 10 10 -18 24 -63 32 -63 10 -128 41 -122 58 4 11 -13 27 -54 51
-61 38 -100 79 -118 128 -9 24 -1 54 55 215 95 267 114 341 121 459 l6 103 31
4 c17 3 78 10 136 17 249 27 368 83 451 211 56 87 65 140 44 243 -10 45 -15
94 -12 107 13 51 14 51 737 57 511 5 680 10 697 19 50 28 57 93 16 143 l-27
32 -156 -7 c-333 -14 -811 -25 -1160 -26 -206 0 -380 -4 -400 -10 -59 -16 -86
-87 -59 -156 5 -16 35 -68 66 -116 91 -144 84 -207 -30 -264 -80 -41 -226 -74
-326 -74 l-86 0 -77 158 c-43 86 -80 167 -83 179 -3 12 3 47 15 79 11 32 20
62 20 66 0 4 -17 8 -37 8 -51 0 -83 10 -83 24 0 7 20 32 45 56 52 51 56 72 19
97 -22 14 -32 15 -70 5 -59 -16 -94 -15 -94 2 0 19 22 35 58 42 23 5 48 -2 98
-25 36 -17 72 -31 80 -31 26 0 14 -22 -48 -86 l-61 -64 114 1 114 1 -65 14
-65 13 101 -2 c98 -2 103 -3 141 -33 l39 -32 -9 52 c-19 109 -46 137 -140 149
-26 4 -79 20 -116 36 -117 52 -215 63 -313 37z m-138 -1994 c10 -37 14 -142 5
-142 -2 0 -19 7 -38 16 -31 15 -37 15 -81 0 -49 -17 -116 -22 -116 -8 0 4 18
28 41 54 l40 48 44 -30 c24 -17 53 -30 64 -30 25 0 25 -3 6 49 -11 32 -12 47
-3 66 14 31 24 24 38 -23z m376 -27 c-6 -57 -4 -65 10 -65 10 0 32 11 50 25
18 14 37 25 43 25 17 0 92 -80 86 -90 -9 -15 -62 -12 -122 7 l-53 17 -36 -35
-37 -34 6 81 c7 94 20 134 43 134 15 0 16 -8 10 -65z"/>
<path d="M8690 7120 c-91 -4 -328 -8 -526 -9 l-362 -1 -6 -22 c-3 -13 -6 -56
-6 -97 l0 -74 693 5 c765 5 749 4 782 68 21 40 14 67 -25 105 l-31 30 -177 1
c-97 1 -251 -2 -342 -6z"/>
<path d="M1018 7085 c-29 -16 -58 -62 -58 -90 0 -29 28 -71 57 -85 23 -12 149
-15 736 -18 l708 -4 -6 34 c-3 18 -9 55 -13 83 -7 45 -10 50 -37 56 -17 4
-192 7 -390 8 -325 2 -611 10 -875 26 -76 5 -101 3 -122 -10z"/>
<path d="M6293 6838 c3 -29 11 -66 18 -82 l13 -28 237 4 c273 4 279 6 279 83
0 70 0 70 -293 73 l-260 4 6 -54z"/>
<path d="M6890 6810 l0 -81 323 3 c289 3 326 5 350 21 20 13 27 26 27 50 -1
79 -13 81 -382 85 l-318 3 0 -81z"/>
<path d="M7667 6873 c-4 -3 -7 -38 -7 -76 l0 -70 613 6 c336 4 632 10 655 13
58 9 72 37 46 91 l-19 38 -641 3 c-352 1 -644 -1 -647 -5z"/>
<path d="M2775 6853 c-72 -8 -95 -15 -110 -29 -19 -19 -20 -74 -1 -100 14 -18
29 -19 347 -19 l332 0 2 78 1 77 -270 -1 c-149 -1 -284 -4 -301 -6z"/>
<path d="M3465 6853 c-22 -2 -48 -12 -57 -20 -27 -24 -23 -79 7 -108 l24 -25
239 0 239 0 18 60 c29 95 30 95 -223 96 -114 1 -225 -1 -247 -3z"/>
<path d="M1305 6831 c-33 -5 -41 -11 -48 -36 -5 -18 -4 -40 1 -56 9 -22 18
-27 64 -32 29 -4 322 -7 651 -7 l597 0 0 70 0 70 -612 -1 c-337 -1 -631 -5
-653 -8z"/>
<path d="M6327 6683 c-2 -4 -7 -29 -11 -54 l-7 -45 120 -28 c216 -50 256 -46
267 24 8 51 -17 78 -86 89 -82 14 -277 24 -283 14z"/>
<path d="M6968 6683 l-218 -3 0 -40 c0 -21 5 -42 10 -45 17 -10 344 -35 466
-35 127 0 171 11 180 45 16 63 -23 86 -139 83 -45 -2 -180 -4 -299 -5z"/>
<path d="M3727 6644 c-65 -7 -130 -19 -144 -26 -35 -17 -49 -59 -31 -95 11
-24 20 -28 60 -31 57 -4 266 44 291 66 13 12 17 27 15 56 -3 39 -5 41 -38 43
-19 0 -88 -5 -153 -13z"/>
<path d="M7490 6608 l5 -53 135 -6 c289 -14 939 -31 1023 -28 74 3 91 7 103
23 19 27 18 45 -6 84 l-20 32 -623 0 -623 0 6 -52z"/>
<path d="M2841 6620 c-13 -38 3 -87 31 -96 11 -3 152 2 314 12 l294 18 0 41 0
42 -52 7 c-29 3 -171 6 -315 6 l-261 0 -11 -30z"/>
<path d="M1560 6623 c-59 -9 -70 -15 -85 -43 -18 -34 -10 -59 27 -84 29 -20
156 -21 573 -1 171 7 392 17 493 21 l182 7 0 53 0 54 -582 -1 c-321 -1 -594
-3 -608 -6z"/>
<path d="M6271 6520 c-37 -51 -27 -67 79 -127 141 -79 167 -80 204 -9 20 40 8
60 -57 92 -46 24 -180 74 -197 74 -3 0 -16 -14 -29 -30z"/>
<path d="M6742 6515 c-23 -20 -42 -41 -42 -45 0 -16 302 -80 377 -80 73 0 114
56 78 107 -20 28 -85 41 -244 49 l-128 7 -41 -38z"/>
<path d="M3375 6519 c-170 -15 -270 -30 -292 -45 -30 -19 -29 -58 2 -89 20
-21 34 -25 82 -25 52 0 350 54 362 65 6 7 -16 46 -42 77 -21 24 -24 24 -112
17z"/>
<path d="M3845 6486 c-119 -43 -154 -62 -164 -89 -11 -30 6 -75 36 -94 24 -16
28 -15 109 25 119 59 164 89 164 110 0 10 -12 32 -27 49 l-28 32 -90 -33z"/>
<path d="M7235 6476 c-9 -46 -2 -64 27 -70 32 -6 932 -85 1054 -93 127 -7 171
0 186 32 12 27 -2 74 -29 96 -13 11 -434 36 -1070 64 l-162 7 -6 -36z"/>
<path d="M2565 6459 c-383 -17 -732 -40 -764 -49 -69 -19 -90 -65 -52 -111 18
-23 25 -24 123 -22 56 2 222 14 368 28 146 14 373 34 505 46 262 23 265 24
265 86 l0 33 -132 -1 c-73 -1 -214 -6 -313 -10z"/>
<path d="M6615 6416 c-3 -14 -7 -37 -10 -50 -6 -30 13 -46 100 -84 97 -42 143
-54 190 -50 32 2 42 8 53 31 20 42 8 76 -36 94 -38 16 -202 65 -259 77 -29 7
-33 5 -38 -18z"/>
<path d="M6174 6401 c-59 -36 -56 -46 40 -143 66 -68 101 -76 135 -32 29 37
26 57 -11 100 -29 33 -112 94 -127 94 -4 0 -20 -9 -37 -19z"/>
<path d="M3453 6366 c-155 -45 -194 -75 -173 -131 20 -54 83 -52 230 6 122 49
133 63 114 137 -8 29 -32 28 -171 -12z"/>
<path d="M3948 6335 c-31 -24 -62 -54 -68 -65 -15 -27 -4 -73 21 -96 19 -17
21 -17 53 0 18 10 63 48 100 85 l67 68 -35 26 c-19 15 -45 27 -58 27 -13 0
-49 -20 -80 -45z"/>
<path d="M7143 6341 c-23 -4 -48 -13 -57 -20 -22 -18 -20 -48 4 -61 11 -6 120
-26 242 -46 123 -19 288 -46 368 -59 273 -46 331 -43 338 19 6 45 -6 75 -36
90 -72 36 -744 97 -859 77z"/>
<path d="M2695 6295 c-293 -29 -442 -51 -471 -70 -36 -23 -37 -104 -1 -127 24
-15 112 -7 389 37 156 24 339 52 408 61 142 18 162 29 136 69 -41 62 -93 65
-461 30z"/>
<path d="M6015 6306 c-18 -13 -19 -18 -7 -63 13 -50 37 -89 64 -107 25 -15 71
4 86 38 19 38 -2 93 -47 123 -39 26 -69 29 -96 9z"/>
<path d="M4114 6246 c-51 -51 -58 -90 -21 -124 48 -46 113 -10 137 76 15 56
12 72 -16 82 -42 16 -55 12 -100 -34z"/>
<path d="M6463 6280 c-47 -20 -19 -52 121 -140 74 -47 88 -47 116 3 11 19 12
33 5 54 -20 56 -179 110 -242 83z"/>
<path d="M5840 6200 c0 -78 13 -94 73 -88 42 4 59 38 47 93 -11 48 -32 65 -82
65 l-38 0 0 -70z"/>
<path d="M3665 6251 c-77 -20 -135 -71 -135 -120 0 -85 123 -57 229 52 40 41
42 46 24 55 -28 15 -84 21 -118 13z"/>
<path d="M5708 6253 c-35 -6 -49 -24 -59 -80 -11 -58 0 -73 57 -73 53 0 71 17
80 77 10 70 -7 87 -78 76z"/>
<path d="M4304 6232 c-20 -13 -44 -102 -34 -123 17 -30 51 -49 79 -42 45 10
51 21 51 99 l0 74 -42 0 c-24 0 -48 -4 -54 -8z"/>
<path d="M4453 6213 c-6 -14 4 -133 11 -140 11 -11 75 -13 100 -4 27 11 28 13
24 67 -3 30 -11 61 -19 68 -21 21 -109 27 -116 9z"/>
<path d="M6945 6190 c-22 -11 -52 -24 -68 -28 -15 -4 -28 -11 -29 -17 -3 -12
19 -19 327 -116 253 -79 339 -93 394 -65 27 15 31 22 31 59 0 75 -3 76 -282
131 -302 60 -323 62 -373 36z"/>
<path d="M3195 6173 c-11 -2 -81 -15 -155 -29 -169 -31 -369 -81 -387 -96 -20
-16 -16 -82 6 -109 34 -42 101 -33 401 59 146 44 279 86 295 92 29 11 30 12
10 27 -30 23 -118 63 -135 62 -8 -1 -24 -3 -35 -6z"/>
<path d="M6338 6158 c-16 -5 -28 -14 -28 -18 0 -16 84 -111 111 -127 59 -35
111 15 89 83 -21 64 -96 90 -172 62z"/>
<path d="M3752 6097 c-23 -23 -42 -48 -42 -54 0 -6 12 -25 26 -42 40 -48 68
-42 136 30 32 33 58 64 58 69 0 12 -76 40 -108 40 -20 0 -40 -13 -70 -43z"/>
<path d="M6188 6102 c-44 -32 -48 -56 -17 -119 23 -48 49 -60 92 -44 35 13 50
51 36 89 -12 32 -59 102 -68 102 -3 -1 -23 -13 -43 -28z"/>
<path d="M6740 6085 c-7 -8 -28 -17 -46 -21 -19 -3 -33 -11 -31 -18 4 -15 377
-205 403 -206 25 0 48 24 64 64 21 57 -29 93 -233 165 -98 34 -138 38 -157 16z"/>
<path d="M3988 6078 c-25 -20 -58 -80 -58 -106 0 -30 43 -72 74 -72 50 0 106
108 75 146 -11 13 -61 44 -72 44 -2 0 -10 -6 -19 -12z"/>
<path d="M3350 6036 c-125 -44 -201 -76 -222 -94 -12 -10 -18 -29 -18 -58 0
-35 5 -47 25 -60 23 -15 29 -15 77 1 63 20 351 166 355 180 3 11 -89 65 -110
65 -6 0 -55 -15 -107 -34z"/>
<path d="M5652 6040 c-48 -7 -58 -18 -68 -67 -8 -44 -1 -59 37 -78 58 -31 96
8 114 113 8 47 8 47 -83 32z"/>
<path d="M6000 6043 c-35 -13 -50 -37 -50 -79 0 -53 19 -74 69 -74 47 0 71 24
71 73 0 59 -15 87 -47 86 -16 0 -35 -3 -43 -6z"/>
<path d="M5771 6009 c-13 -37 -14 -79 -3 -96 12 -18 55 -32 86 -26 31 6 46 35
46 88 0 46 -22 65 -75 65 -39 0 -44 -3 -54 -31z"/>
<path d="M4160 6011 c-13 -25 -13 -106 0 -131 13 -24 57 -34 91 -19 30 12 44
51 37 100 -3 24 -43 52 -90 63 -21 5 -30 2 -38 -13z"/>
<path d="M6527 5987 c-20 -18 -37 -37 -37 -44 0 -13 150 -149 232 -212 64 -48
89 -51 117 -15 27 34 27 64 0 98 -23 29 -253 206 -266 206 -4 -1 -25 -15 -46
-33z"/>
<path d="M4359 5989 c-18 -18 -21 -30 -17 -71 6 -55 17 -68 66 -68 46 0 75 32
67 73 -14 71 -25 87 -61 87 -21 0 -42 -8 -55 -21z"/>
<path d="M4505 5988 c-4 -13 2 -46 12 -73 23 -61 58 -79 101 -53 41 25 51 62
27 106 -19 35 -23 37 -77 40 -53 3 -58 1 -63 -20z"/>
<path d="M3542 5900 c-142 -103 -166 -131 -159 -183 9 -69 49 -75 130 -19 69
46 237 199 237 215 0 10 -78 67 -92 67 -3 0 -55 -36 -116 -80z"/>
<path d="M6316 5921 l-38 -39 91 -116 c51 -63 104 -124 118 -136 30 -24 70
-26 100 -5 35 25 35 51 -4 103 -36 48 -213 232 -223 232 -3 0 -23 -18 -44 -39z"/>
<path d="M3765 5826 c-127 -147 -149 -183 -132 -216 15 -30 60 -54 87 -45 19
6 230 260 230 276 0 12 -64 92 -76 96 -6 2 -55 -48 -109 -111z"/>
<path d="M6133 5871 c-23 -16 -44 -34 -47 -40 -13 -20 144 -292 187 -324 50
-38 116 9 102 72 -5 24 -166 284 -194 314 -4 4 -26 -6 -48 -22z"/>
<path d="M5533 5854 c-11 -29 3 -338 17 -367 23 -47 80 -50 113 -5 20 27 20
33 9 154 -14 144 -36 208 -77 224 -37 14 -55 12 -62 -6z"/>
<path d="M4007 5778 c-84 -114 -147 -220 -147 -248 0 -31 37 -70 66 -70 11 0
30 7 42 16 22 15 192 291 192 311 0 12 -71 63 -88 63 -7 0 -36 -33 -65 -72z"/>
<path d="M5696 5841 c-8 -12 20 -173 50 -291 33 -130 58 -161 119 -146 37 9
44 49 25 141 -19 91 -57 227 -72 261 -16 34 -107 60 -122 35z"/>
<path d="M5908 5834 c-16 -8 -28 -16 -28 -18 0 -17 93 -261 130 -339 48 -101
145 -73 127 36 -7 42 -90 232 -127 291 -32 50 -54 57 -102 30z"/>
<path d="M4635 5821 c-41 -17 -51 -43 -63 -162 -14 -133 -15 -199 -4 -215 24
-36 93 -39 112 -5 11 22 30 201 30 288 0 95 -18 117 -75 94z"/>
<path d="M4495 5815 c-5 -2 -21 -6 -35 -9 -17 -3 -32 -18 -42 -40 -25 -51 -88
-296 -88 -340 0 -33 4 -39 35 -51 42 -18 81 -6 94 27 16 43 71 296 77 357 6
56 5 61 -12 60 -10 0 -23 -2 -29 -4z"/>
<path d="M4243 5788 c-30 -32 -144 -274 -150 -318 -4 -29 0 -40 22 -63 60 -59
94 -27 163 155 55 145 79 224 71 232 -3 3 -23 8 -44 11 -34 6 -43 3 -62 -17z"/>
<path d="M3523 5330 c3 -60 4 -110 1 -110 -2 0 -48 21 -102 46 -86 40 -95 47
-79 58 9 7 17 16 17 19 0 20 -186 58 -285 57 -29 -1 -27 -4 59 -87 90 -86 139
-123 165 -123 8 0 11 6 7 15 -9 25 16 18 136 -36 62 -28 124 -55 137 -60 l24
-10 -5 111 c-3 61 -3 112 1 115 4 2 110 -43 237 -99 282 -127 274 -125 274
-92 0 31 -36 60 -145 114 -111 55 -422 192 -436 192 -9 0 -11 -28 -6 -110z"/>
<path d="M6595 5390 c-421 -192 -468 -220 -452 -264 6 -14 14 -13 69 8 35 13
139 59 233 101 93 42 180 81 194 86 l24 10 -7 -111 c-5 -90 -4 -110 7 -110 8
0 52 18 99 39 117 54 163 67 182 52 12 -10 22 -9 50 4 40 19 214 179 205 189
-9 10 -231 -15 -267 -30 -26 -11 -33 -18 -27 -31 3 -10 7 -22 8 -26 2 -7 -79
-46 -161 -78 l-24 -9 7 110 c9 133 16 131 -140 60z"/>
<path d="M6360 5100 c0 -23 -14 -27 -123 -34 -82 -5 -107 -16 -107 -47 0 -28
30 -39 132 -45 73 -5 98 -11 115 -26 23 -22 42 -20 138 8 88 27 135 45 135 54
0 19 -228 110 -276 110 -8 0 -14 -9 -14 -20z"/>
<path d="M3741 5084 c-93 -28 -121 -40 -121 -55 0 -15 119 -68 183 -81 48 -10
59 -10 74 4 12 11 52 19 126 26 59 5 109 11 112 14 3 2 6 15 7 29 3 24 2 24
-114 33 -115 9 -118 10 -118 32 0 20 -5 24 -32 23 -18 0 -71 -11 -117 -25z"/>
<path d="M3465 4880 c-127 -59 -165 -70 -165 -50 0 6 -10 10 -23 10 -38 0
-217 -163 -217 -197 0 -11 165 7 220 23 67 20 84 32 70 49 -8 10 -2 18 22 33
34 21 132 62 148 62 5 0 6 -44 3 -105 -4 -76 -3 -105 5 -105 14 0 286 119 458
200 121 57 124 60 124 91 0 30 -1 31 -32 26 -18 -3 -126 -48 -241 -101 -114
-53 -215 -96 -224 -96 -14 0 -15 13 -10 110 3 61 3 110 -1 110 -4 0 -65 -27
-137 -60z"/>
<path d="M6652 4833 l3 -108 -25 3 c-13 1 -112 43 -220 93 -107 50 -210 93
-227 96 -31 5 -33 4 -33 -26 0 -31 3 -34 148 -102 193 -93 427 -199 437 -199
5 0 5 47 2 105 -6 85 -4 107 7 111 13 5 144 -54 174 -79 11 -8 11 -12 0 -18
-22 -14 12 -38 71 -49 79 -15 191 -13 191 3 0 24 -193 197 -221 197 -5 0 -9
-9 -9 -20 0 -11 -5 -20 -11 -20 -6 0 -71 27 -145 60 -73 33 -136 60 -139 60
-3 0 -4 -48 -3 -107z"/>
<path d="M3246 4308 c-3 -7 -7 -35 -10 -63 -4 -27 -10 -53 -16 -59 -5 -5 -70
14 -169 53 -88 33 -167 61 -175 61 -14 0 -16 -63 -16 -636 l0 -636 33 7 c17 4
94 32 170 61 77 30 145 54 153 54 11 0 14 -17 14 -70 l0 -70 1884 0 c1277 0
1887 3 1891 10 4 6 9 36 12 66 3 31 11 58 18 60 6 3 76 -21 155 -52 80 -31
158 -57 175 -58 l30 -1 8 75 c13 121 4 1177 -10 1191 -9 9 -36 2 -115 -31
-160 -66 -241 -92 -249 -79 -4 6 -10 38 -13 70 l-7 59 -1880 0 c-1495 0 -1880
-3 -1883 -12z m3181 -86 c321 -5 455 -10 464 -19 6 -6 14 -50 16 -97 3 -47 8
-86 11 -86 3 0 62 21 131 47 69 25 155 54 191 64 l65 17 3 -472 c1 -259 0
-481 -3 -493 -3 -13 -13 -23 -22 -23 -9 0 -90 32 -180 70 -90 39 -168 70 -173
70 -13 0 -20 -33 -22 -120 l-3 -75 -1791 -3 -1791 -2 -7 46 c-3 26 -6 73 -6
105 0 33 -2 59 -5 59 -3 0 -82 -38 -175 -85 -93 -47 -171 -85 -173 -85 -7 0
-18 946 -11 978 8 41 6 41 199 -35 77 -31 146 -58 153 -60 9 -4 12 11 12 55 0
32 3 80 6 106 l7 46 1326 -1 c729 0 1529 -4 1778 -7z"/>
<path d="M3769 3980 c-42 -4 -92 -13 -112 -19 -38 -13 -100 -74 -112 -110 -16
-52 63 -123 201 -181 179 -74 213 -134 111 -194 -88 -52 -189 -25 -267 73 -18
23 -37 41 -40 41 -4 0 -10 -21 -14 -48 -3 -26 -15 -64 -26 -85 -21 -38 -19
-64 3 -50 7 5 89 10 182 13 162 5 172 6 216 32 54 32 80 67 86 117 8 69 -49
127 -174 176 -40 15 -98 42 -130 60 -49 27 -58 37 -61 63 -3 26 2 35 28 51 41
25 131 36 161 20 13 -6 44 -32 71 -57 27 -25 50 -43 51 -41 8 11 27 131 22
139 -7 11 -81 11 -196 0z"/>
<path d="M4303 3973 c-68 -2 -123 -7 -123 -12 0 -5 15 -14 33 -21 55 -20 61
-26 70 -66 5 -21 9 -120 10 -219 l2 -180 -42 -15 c-77 -26 -46 -40 93 -40 105
0 186 9 179 20 -3 5 -27 13 -54 20 -27 6 -52 17 -54 24 -3 7 -9 110 -13 230
l-7 216 77 0 c126 0 186 -41 186 -125 0 -36 -5 -48 -30 -69 -35 -29 -88 -46
-143 -46 -27 0 -37 -4 -35 -12 6 -17 155 -22 210 -8 79 22 132 104 113 177 -9
39 -74 99 -120 112 -50 13 -195 19 -352 14z"/>
<path d="M5271 3965 c-127 -36 -201 -89 -245 -178 -28 -54 -35 -133 -16 -181
32 -86 154 -160 322 -195 99 -20 151 -42 225 -93 23 -16 86 -50 140 -76 91
-44 102 -47 195 -50 109 -5 277 13 323 33 27 12 18 13 -95 14 -175 2 -248 14
-344 60 -89 41 -196 106 -196 118 0 5 29 23 65 42 106 54 185 162 185 250 0
78 -94 191 -198 239 -50 23 -72 26 -182 29 -88 2 -141 -2 -179 -12z m270 -39
c52 -22 97 -62 121 -110 31 -58 31 -184 1 -242 -28 -53 -82 -100 -130 -113
-57 -16 -228 -14 -262 3 -15 8 -45 34 -65 57 -145 160 -85 367 121 419 51 13
170 5 214 -14z"/>
<path d="M6091 3969 c-100 -12 -112 -25 -31 -36 23 -3 44 -13 49 -22 16 -32
21 -115 14 -276 l-6 -164 -61 -20 -61 -19 165 -1 165 0 -40 21 c-22 11 -43 26
-47 32 -4 6 -8 49 -8 96 0 81 9 110 32 110 5 0 63 -52 129 -116 77 -74 138
-123 167 -137 60 -26 167 -33 272 -18 94 14 112 20 104 32 -3 5 -39 7 -82 3
-154 -13 -259 35 -370 167 l-62 72 48 28 c92 53 119 107 83 166 -50 80 -218
110 -460 82z m286 -58 c88 -40 91 -125 7 -163 -24 -10 -67 -20 -96 -21 l-53
-2 -3 103 -3 102 53 0 c30 0 71 -9 95 -19z"/>
<path d="M4099 3734 c-17 -21 0 -49 31 -49 27 0 46 25 37 49 -8 21 -51 21 -68
0z"/>
<path d="M4820 3726 c0 -35 25 -52 55 -38 43 20 25 62 -27 62 -23 0 -28 -4
-28 -24z"/>
<path d="M5942 3734 c-25 -17 -21 -31 14 -44 44 -17 73 17 42 48 -16 16 -29
15 -56 -4z"/>
<path d="M6647 3743 c-13 -12 -7 -51 8 -57 21 -8 65 10 65 27 0 29 -53 51 -73
30z"/>
</g>
</svg>
