<svg id="Layer_1" height="512" viewBox="0 0 512 512" width="512" xmlns="http://www.w3.org/2000/svg" data-name="Layer 1"><path d="m302 253.11v-.11h-92v.11l-178.59 154.505a19.923 19.923 0 0 0 14.59 6.385h420a19.923 19.923 0 0 0 14.59-6.385z" fill="#b0b5ca"/><path d="m481.99 106.09-179.99 147.01v.01l178.59 154.46a19.9 19.9 0 0 0 5.41-13.66v-275.82a19.9 19.9 0 0 0 -4.01-12z" fill="#e87187"/><path d="m26 118.09v275.82a19.9 19.9 0 0 0 5.41 13.66l178.59-154.46v-.01l-179.99-147.01a19.9 19.9 0 0 0 -4.01 12z" fill="#e87187"/><path d="m466 98h-420a19.978 19.978 0 0 0 -16 8.045l226 184.634 226-184.637a19.976 19.976 0 0 0 -16-8.042z" fill="#ccd3df"/><path d="m56 127.318-25.99-21.228a19.9 19.9 0 0 0 -4.01 12v275.82a19.9 19.9 0 0 0 5.41 13.66l24.59-21.27z" fill="#bc5c71"/><g fill="#284268"><path d="m53 171a6 6 0 0 0 6-6v-4.778a6 6 0 0 0 -12 0v4.778a6 6 0 0 0 6 6z"/><path d="m53 264a6 6 0 0 0 6-6v-71.182a6 6 0 0 0 -12 0v71.182a6 6 0 0 0 6 6z"/><path d="m466 92h-420a26 26 0 0 0 -26 26v276a26 26 0 0 0 26 26h36a6 6 0 0 0 0-12h-36a13.918 13.918 0 0 1 -4.819-.916l168.926-146.13 42.1 34.387a6 6 0 0 0 7.592 0l42.109-34.4 168.914 146.14a13.918 13.918 0 0 1 -4.822.919h-342a6 6 0 0 0 0 12h342a26 26 0 0 0 26-26v-276a26 26 0 0 0 -26-26zm-433.231 306.456a13.95 13.95 0 0 1 -.769-4.542v-275.828a13.943 13.943 0 0 1 .227-2.433l168.439 137.59zm223.231-115.509-216.824-177.112a13.952 13.952 0 0 1 6.91-1.835h419.914a13.924 13.924 0 0 1 6.9 1.826c-.02 0-.036 0-.056-.007zm224 110.967a13.914 13.914 0 0 1 -.769 4.536l-167.891-145.213 168.434-137.585c-.034-.2-.062-.4-.091-.6a14.026 14.026 0 0 1 .317 2.948z"/></g></svg>