<svg id="Layer_1" height="512" viewBox="0 0 512 512" width="512" xmlns="http://www.w3.org/2000/svg" data-name="Layer 1"><path d="m351.005 11.21-1.835-.21h-213.38c-16.72 0-29.79 13.55-29.79 30.27v21.73l247 261.74.235-.1 62.765 4.36v-261z" fill="#b3d1e7"/><path d="m355 321.74v-203.74l-64-56.343-215.77-.657c-16.72 0-30.23 13.99-30.23 30.71v362.2a30.08 30.08 0 0 0 30.23 30.09h247.95l.22-.225 31.835-161.968z" fill="#d1dfe5"/><path d="m355.43 117.88v.23h-64.78v-56.453h.23z" fill="#b6cad3"/><path d="m351.22 67.67v-56.46l.23.02 64.55 56.21v.23h-.01z" fill="#8aafc4"/><path d="m361.52 317.75a91.991 91.991 0 1 1 -6.07 1.1q3.015-.645 6.07-1.1z" fill="#6994fe"/><path d="m286.79 153.58a9.96 9.96 0 0 0 9.12 6.6v53.47l-43.9 17.04v-63.6l34.7-13.49z" fill="#4fa884"/><path d="m286.71 287.02-34.7 13.46v-69.79l43.9-17.04v60.31a9.952 9.952 0 0 0 -9.7 9.95 9.7 9.7 0 0 0 .5 3.11z" fill="#bc5e72"/><path d="m286.71 153.6-34.7 13.49v-.23l-49.21-18.98 41.59-14.47 42.32 13.69a10.107 10.107 0 0 0 -.5 3.13 9.787 9.787 0 0 0 .58 3.35z" fill="#74e2b5"/><path d="m252.01 230.69v69.79l-42.9 16.65a9.945 9.945 0 0 0 -9.33-6.48v-59.69z" fill="#4fa884"/><path d="m252.01 167.09v63.6l-52.23 20.27v-53.48a9.941 9.941 0 0 0 9.22-13.68z" fill="#bc5e72"/><path d="m252.01 167.09-43.01 16.71a9.949 9.949 0 0 0 -18.44 0l-43.01-16.69 55.25-19.23 49.21 18.98z" fill="#f495a9"/><path d="m190.27 122.06a9.947 9.947 0 0 0 19.02 0h.01l35.09 11.35-41.59 14.47-42.13-16.25z" fill="#f495a9"/><path d="m199.78 250.96v59.69a9.955 9.955 0 0 0 -9.33 6.48l-42.9-16.55v-69.89z" fill="#e87187"/><path d="m189.83 187.54a9.948 9.948 0 0 0 9.95 9.94v53.48l-52.23-20.27v-63.58l43.01 16.69a9.891 9.891 0 0 0 -.73 3.74z" fill="#5fcda4"/><path d="m147.55 167.11v63.58l-43.9-17.04v-54.09a9.946 9.946 0 0 0 8.9-6.03z" fill="#e87187"/><path d="m112.6 287.1a9.97 9.97 0 0 0 -8.95-13.76v-59.69l43.9 17.04v69.89z" fill="#5fcda4"/><path d="m112.55 153.53a10.021 10.021 0 0 0 .8-3.92 10.342 10.342 0 0 0 -.33-2.57l47.65-15.41 42.13 16.25-55.25 19.23z" fill="#74e2b5"/><path d="m296.16 139.73a10.5 10.5 0 0 1 0 21h-.26a10.51 10.51 0 0 1 -9.624-6.965 10.328 10.328 0 0 1 -.612-3.535 10.657 10.657 0 0 1 .528-3.3 10.486 10.486 0 0 1 9.968-7.2z" fill="#f3ce7d"/><path d="m306.66 283.91a10.5 10.5 0 0 1 -20.472 3.282 10.214 10.214 0 0 1 -.528-3.282 10.5 10.5 0 0 1 10.236-10.5h.264a10.508 10.508 0 0 1 10.5 10.5z" fill="#f3ce7d"/><path d="m199.78 198.03a10.491 10.491 0 1 1 10.5-10.49 10.5 10.5 0 0 1 -10.5 10.49z" fill="#f3ce7d"/><path d="m199.78 129.64a10.511 10.511 0 0 1 -10.036-7.419 10.222 10.222 0 0 1 -.464-3.081 10.5 10.5 0 0 1 21 0 10.222 10.222 0 0 1 -.464 3.081 10.5 10.5 0 0 1 -10.036 7.419z" fill="#f3ce7d"/><path d="m199.78 331.1a10.512 10.512 0 1 1 10.5-10.5 10.508 10.508 0 0 1 -10.5 10.5z" fill="#f3ce7d"/><path d="m103.41 139.1a10.516 10.516 0 0 1 10.147 7.792 10.943 10.943 0 0 1 .348 2.713 10.495 10.495 0 0 1 -10.241 10.5h-.254a10.5 10.5 0 1 1 0-21.01z" fill="#f3ce7d"/><path d="m113.9 283.29a10.5 10.5 0 1 1 -10.49-10.5h.254a10.5 10.5 0 0 1 10.236 10.5z" fill="#f3ce7d"/><path d="m75 453.91v-362.2c0-16.006 12.383-29.5 28.109-30.625l-27.879-.085c-16.72 0-30.23 13.99-30.23 30.71v362.2a30.08 30.08 0 0 0 30.23 30.09h30a30.08 30.08 0 0 1 -30.23-30.09z" fill="#b8bfc1"/><path d="m351.4 483.86a92.128 92.128 0 0 1 34.05-165.01c1.5-.32 3-.6 4.518-.845a92.027 92.027 0 0 0 -28.448-.255q-3.06.45-6.07 1.1a92.122 92.122 0 0 0 34.557 180.919 91.609 91.609 0 0 1 -38.607-15.909z" fill="#5f84ce"/><g fill="#284268"><path d="m352.468 373.42a6 6 0 0 0 -8.485.137l-30.218 31.209a6 6 0 0 0 0 8.347l30.218 31.208a6 6 0 1 0 8.621-8.347l-26.177-27.035 26.173-27.034a6 6 0 0 0 -.132-8.485z"/><path d="m397.522 373.42a6 6 0 0 0 -.137 8.485l26.177 27.034-26.177 27.035a6 6 0 0 0 8.621 8.347l30.219-31.208a6 6 0 0 0 0-8.347l-30.219-31.209a6 6 0 0 0 -8.484-.137z"/><path d="m387.57 359.18a6 6 0 0 0 -7.287 4.347l-22.21 87.885a6 6 0 1 0 11.634 2.94l22.21-87.885a6 6 0 0 0 -4.347-7.287z"/><path d="m173.94 358h-79.747a6 6 0 1 0 0 12h79.747a6 6 0 1 0 0-12z"/><path d="m72 94.512a6 6 0 0 0 -6 6v3.837a6 6 0 0 0 12 0v-3.837a6 6 0 0 0 -6-6z"/><path d="m72 119.373a6 6 0 0 0 -6 6v99.01a6 6 0 1 0 12 0v-99.01a6 6 0 0 0 -6-6z"/><path d="m87.632 283.291a15.841 15.841 0 0 0 27.242 11.109l69 26.624a15.924 15.924 0 0 0 31.838-.01l68.488-26.584a15.952 15.952 0 1 0 17.8-25.375v-103.969a15.95 15.95 0 1 0 -17.976-25.168l-68.355-22.105a15.937 15.937 0 0 0 -31.766 0l-67.954 21.976a15.854 15.854 0 1 0 -17.949 24.675v103.969a16.054 16.054 0 0 0 -10.368 14.858zm106.368 22.539a17.346 17.346 0 0 0 -5.58 3.961l-34.42-13.321v-57.017l40 15.613zm0-63.637-40-15.612v-50.707l30.171 11.753a15.565 15.565 0 0 0 9.829 14.673zm-29.073-74.778 37.767-13.145 32.99 12.723-24.427 9.494a15.884 15.884 0 0 0 -22.95 0zm34.856 157.131a3.949 3.949 0 1 1 3.948-3.949 3.953 3.953 0 0 1 -3.948 3.949zm0-133.062a3.949 3.949 0 1 1 3.948-3.948 3.953 3.953 0 0 1 -3.948 3.948zm46.217 104.893-34.427 13.4a17.309 17.309 0 0 0 -5.573-3.947v-50.764l40-15.613zm0-69.8-40 15.612v-39.889a15.567 15.567 0 0 0 9.829-14.679l30.171-11.768zm44 42.659a15.144 15.144 0 0 0 -9.711 13.85l-22.289 8.634v-56.92l32-12.38zm6.159-122.959a3.949 3.949 0 1 1 -3.949 3.948 3.952 3.952 0 0 1 3.949-3.944zm0 133.683a3.949 3.949 0 1 1 -3.949 3.948 3.952 3.952 0 0 1 3.949-3.944zm-11.744-119.019a17.433 17.433 0 0 0 5.585 3.959v44.642l-32 12.381v-50.734zm-6.47-10.374-25.652 9.97-32.069-12.368 24.231-8.433zm-78.162-35.376a3.949 3.949 0 1 1 -3.949 3.949 3.953 3.953 0 0 1 3.949-3.949zm-12.309 14.079a15.93 15.93 0 0 0 24.618 0l13.44 4.346-22.625 7.875-24.274-9.362zm-26.98 8.73 24.883 9.6-37.71 13.125-26.106-10.131zm-50.494 26.279a15.347 15.347 0 0 0 5.138-3.468l26.862 10.406v50.706l-32-12.38zm0 58.137 32 12.38v57.045l-22.248-8.562c0-6.573-4.752-12.227-9.752-14.661zm-6.594-76.757a3.949 3.949 0 1 1 -3.948 3.948 3.953 3.953 0 0 1 3.948-3.948zm0 133.683a3.949 3.949 0 1 1 -3.948 3.949 3.953 3.953 0 0 1 3.948-3.949z"/><path d="m444.327 339.512a97.611 97.611 0 0 0 -22.327-16.674v-255.399a6 6 0 0 0 -2.062-4.525l-64.549-56.214a5.707 5.707 0 0 0 -3.243-1.446l-216.146-.254h-.214a35.9 35.9 0 0 0 -35.786 36.265v13.735h-24.781c-19.995 0-36.219 16.708-36.219 36.707v362.2a36.115 36.115 0 0 0 36.217 36.093h244.483a97.414 97.414 0 0 0 55.223 17h.015a98.117 98.117 0 0 0 69.389-167.488zm-87.327-315.303 43.23 37.791h-43.23zm-245 17.058c0-13.383 10.4-24.267 23.788-24.267h209.212v50.666a6.484 6.484 0 0 0 6.218 6.334h58.782v243.307a98.3 98.3 0 0 0 -49-5.544v-193.883a5.809 5.809 0 0 0 -1.845-4.525l-64.442-56.211a5.844 5.844 0 0 0 -3.29-1.445l-179.423-.699zm227.665 70.733h-42.665v-37.349zm-264.439 366h-.007a24.105 24.105 0 0 1 -24.219-24.093v-362.199c0-13.382 10.837-24.708 24.221-24.708h209.779v51.108a5.621 5.621 0 0 0 5.651 5.892h58.349v190.27a98.865 98.865 0 0 0 -43.433 25.222 97.379 97.379 0 0 0 -27.63 54.508h-183.744a6 6 0 1 0 0 12h182.671c-.027.954-.045 1.909-.045 2.868a99.045 99.045 0 0 0 2.059 20.132h-184.685a6 6 0 1 0 0 12h187.986a97.705 97.705 0 0 0 23.121 37zm360.6-8.215a85.553 85.553 0 0 1 -60.888 25.215h-.013a86.118 86.118 0 0 1 -60.874-147.021 86.68 86.68 0 0 1 48.34-24.3 85.123 85.123 0 0 1 12.412-.907 86.568 86.568 0 0 1 61.038 25.228 86.116 86.116 0 0 1 -.018 121.789z"/></g></svg>